<svg width="291" height="241" viewBox="0 0 291 241" fill="none" xmlns="http://www.w3.org/2000/svg">
<path d="M25.3014 144.642V145.483H37.6652V144.642H25.3014ZM32.1358 132.735H30.9565L20.9996 152.579H22.353L25.8717 145.483L26.2874 144.642L28.2497 140.673C29.4388 138.268 30.4441 136.223 31.4591 133.758H31.6331C32.6385 136.223 33.6535 138.268 34.8328 140.673L36.7759 144.642L37.1819 145.483L40.6523 152.579H42.0926L32.1358 132.735Z" stroke="white" stroke-width="2"/>
<path d="M52.0494 151.737V132.735H50.7831V152.579H66.8977V151.737H52.0494Z" stroke="white" stroke-width="2"/>
<path d="M76.4292 151.737V142.417H88.9187V141.575H76.4292V133.577H91.2774V132.735H75.0758V152.579H91.7027V151.737H76.4292Z" stroke="white" stroke-width="2"/>
<path d="M115.348 124.046L110.698 132.605L108.407 136.834L108.194 137.225L116.633 152.579H115.193L110.05 143.008C109.287 141.565 108.446 140.112 107.431 138.308H107.266C106.338 140.112 105.575 141.565 104.821 143.008L99.6681 152.579H98.3245L106.754 137.135L98.9141 122.773H100.345L105.236 131.984C106 133.337 106.59 134.329 107.518 135.963H107.682C107.74 135.842 107.798 135.732 107.856 135.622C108.61 134.189 109.093 133.237 109.799 131.984L110.427 130.801L112.718 126.492M115.222 122.773H114.99" stroke="white" stroke-width="2"/>
<path d="M140.713 133.577V132.735H124.85V133.577H132.11V151.737H124.85V152.579H140.713V151.737H133.463V133.577H140.713Z" stroke="white" stroke-width="2"/>
<path d="M151.85 144.642V145.483H164.213V144.642H151.85ZM158.684 132.735H157.505L147.548 152.579H148.901L152.42 145.483L152.836 144.642L154.808 140.673C155.987 138.268 157.002 136.223 158.007 133.758H158.181C159.187 136.223 160.202 138.268 161.381 140.673L163.324 144.642L163.74 145.483L167.21 152.579H168.641L158.684 132.735Z" stroke="white" stroke-width="2"/>
<path d="M190.749 132.735V154.513C190.749 157.65 190.875 160.697 190.913 163.894H190.826L187.752 157.4L176.191 132.735H174.799V166.229H176.065V144.261C176.065 141.114 175.939 138.268 175.891 135.071H175.978L179.062 141.565L190.623 166.229H192.006V132.735H190.749Z" stroke="white" stroke-width="2"/>
<path d="M202.977 151.737V142.417H215.467V141.575H202.977V133.577H217.826V132.735H201.624V152.579H218.251V151.737H202.977Z" stroke="white" stroke-width="2"/>
<path d="M234.027 149.452C232.925 149.452 231.833 150.054 231.833 151.196C231.833 152.339 232.925 152.94 234.027 152.94C235.129 152.94 236.222 152.339 236.222 151.196C236.222 150.054 235.12 149.452 234.027 149.452Z" fill="white" stroke="white" stroke-width="2"/>
<path d="M257.141 132.735H250.896V152.579H257.141C265.744 152.579 269.63 148.49 269.63 142.597C269.63 136.704 265.744 132.735 257.141 132.735ZM256.976 151.737H252.249V133.577H256.976C264.903 133.577 268.19 137.366 268.19 142.597C268.19 147.829 264.903 151.737 256.976 151.737Z" stroke="white" stroke-width="2"/>
<path d="M258.62 122.773H287.881V166.229H249.688" stroke="white" stroke-width="5" stroke-miterlimit="10"/>
<path d="M122.588 122.773H122.54" stroke="white" stroke-width="5" stroke-miterlimit="10"/>
<path d="M172.836 122.773H172.247" stroke="white" stroke-width="5" stroke-miterlimit="10"/>
<path d="M168.845 122.773H168.825" stroke="white" stroke-width="5" stroke-miterlimit="10"/>
<path d="M180.289 122.774H258.62C258.639 121.972 258.649 121.17 258.649 120.368C258.649 55.5456 207.966 3 145.441 3C82.9156 3 32.2228 55.5456 32.2228 120.368C32.2228 121.17 32.2324 121.972 32.2518 122.774H100.345L105.236 131.984C106 133.337 106.59 134.329 107.518 135.963H107.682C107.74 135.842 107.798 135.732 107.856 135.622C108.61 134.189 109.093 133.237 109.799 131.984L110.427 130.801L112.718 126.492" stroke="white" stroke-width="5" stroke-miterlimit="10"/>
<path d="M115.222 122.773H114.99" stroke="white" stroke-width="5" stroke-miterlimit="10"/>
<path d="M176.384 122.773H176.21" stroke="white" stroke-width="5" stroke-miterlimit="10"/>
<path d="M165.171 122.773H126.223" stroke="white" stroke-width="5" stroke-miterlimit="10"/>
<path d="M119.147 122.773H118.586" stroke="white" stroke-width="5" stroke-miterlimit="10"/>
<path d="M32.2518 122.773H3V166.229H41.1839" stroke="white" stroke-width="5" stroke-miterlimit="10"/>
<path d="M249.688 166.229C232.461 208.272 192.267 237.746 145.441 237.746C98.6145 237.746 58.4199 208.272 41.184 166.229H176.065V144.261C176.065 141.114 175.939 138.268 175.891 135.071H175.978L179.062 141.565L190.623 166.229H249.688Z" stroke="white" stroke-width="5" stroke-miterlimit="10"/>
<path d="M168.854 120.919C168.854 120.919 168.805 120.939 168.767 120.949" stroke="white" stroke-miterlimit="10"/>
<path d="M178.946 115.708C180.589 114.606 182.126 113.433 183.547 112.18C183.876 111.9 184.204 111.619 184.514 111.308C190.72 105.536 194.471 98.3498 194.722 90.5426V90.5226C194.741 90.262 194.741 89.9814 194.741 89.7208C194.741 88.1273 194.587 86.5839 194.316 85.0305V85.0105C193.465 80.4204 191.406 76.1309 188.381 72.2925C186.38 69.7369 185.191 66.5599 185.423 63.2526C185.442 62.992 185.461 62.7314 185.461 62.4709C185.461 51.4867 168.67 42.507 147.538 41.9457C143.053 42.6072 147.674 38.2376 153.628 39.2698C154.721 39.4502 163.779 39.6908 156.673 34.7399C155.397 33.8379 153.377 33.9381 151.956 34.0584C149.771 34.2588 146.929 36.8746 146.214 36.183C145.499 35.4815 151.705 28.5362 153.512 24.357C154.286 22.543 154.856 19.6266 153.59 18.5342C152.565 17.6523 150.448 17.973 149.22 19.1255C147.596 20.6489 146.639 22.984 145.286 26.8525C145.054 27.4739 140.162 42.1862 138.993 37.977C138.761 37.1151 141.593 27.2734 141.729 23.5452C141.787 22.1422 141.825 20.6288 140.974 20.1077C140.278 19.6867 136.141 19.7469 135.851 24.4572C135.426 31.6631 135.677 37.7565 134.855 38.418C133.444 39.5905 127.876 35.6619 128.92 32.5049C129.809 29.789 121.95 27.6342 121.486 30.1899C120.887 33.4871 129.094 40.272 129.519 40.8533C130.322 41.9658 129.732 43.5492 128.437 43.88C114.826 47.1371 105.41 54.2428 105.41 62.4709C105.41 62.7314 105.43 62.992 105.43 63.2526C105.681 66.5599 104.502 69.7369 102.501 72.2925C99.4748 76.1309 97.4158 80.4204 96.5651 85.0105C96.2848 86.5639 96.1301 88.1273 96.1301 89.7208C96.1301 89.9814 96.1301 90.262 96.1495 90.5226V90.5426C96.1591 90.9636 96.1881 91.3745 96.2268 91.7854C96.2461 92.0961 96.2751 92.4067 96.3138 92.7174C96.3331 92.9579 96.3718 93.1985 96.4105 93.439C96.4781 93.89 96.5555 94.341 96.6425 94.792C96.7198 95.1828 96.8068 95.5637 96.9035 95.9445C96.9325 96.0948 96.9711 96.2452 97.0098 96.3855C97.0581 96.5859 97.1161 96.7663 97.1741 96.9567C97.2611 97.2574 97.3481 97.548 97.4448 97.8487C97.5415 98.1494 97.6381 98.43 97.7445 98.7206C97.8315 98.9511 97.9088 99.1816 98.0055 99.4021C98.3245 100.224 98.6822 101.026 99.0882 101.817C99.2815 102.208 99.4942 102.599 99.7068 102.99C100.19 103.842 100.722 104.684 101.292 105.506C101.573 105.916 101.872 106.327 102.182 106.728C102.433 107.059 102.694 107.39 102.965 107.71C103.139 107.921 103.313 108.131 103.496 108.332C103.583 108.452 103.69 108.562 103.796 108.683C103.999 108.913 104.202 109.134 104.415 109.364C105.033 110.025 105.681 110.677 106.358 111.308C106.58 111.519 106.812 111.719 107.044 111.93C107.141 112.01 107.237 112.1 107.334 112.18C108.813 113.483 110.408 114.696 112.129 115.838" stroke="white" stroke-miterlimit="10"/>
<path d="M119.089 119.676C118.944 119.606 118.808 119.546 118.673 119.486" stroke="white" stroke-miterlimit="10"/>
<path d="M165.19 121.771H154.141C151.366 122.202 148.457 122.423 145.45 122.423C142.444 122.423 139.534 122.202 136.76 121.771H126.223" stroke="white" stroke-miterlimit="10"/>
<path d="M122.617 121.14C122.617 121.14 122.579 121.13 122.569 121.12" stroke="white" stroke-miterlimit="10"/>
<path d="M115.57 117.913C115.27 117.752 114.98 117.592 114.7 117.422" stroke="white" stroke-miterlimit="10"/>
<path d="M172.672 119.266C172.585 119.306 172.488 119.356 172.392 119.406" stroke="white" stroke-miterlimit="10"/>
<path d="M176.954 116.971C176.548 117.211 176.133 117.452 175.707 117.692" stroke="white" stroke-miterlimit="10"/>
<path d="M111.945 107.129V107.139C112.129 107.52 112.341 107.871 112.564 108.242C112.718 108.542 112.912 108.803 113.086 109.103C113.53 109.785 113.994 110.446 114.478 111.078C114.516 111.098 114.536 111.158 114.574 111.198C115.986 112.882 117.774 114.405 119.872 115.748C120.52 116.179 121.187 116.57 121.892 116.951C122.356 117.211 122.83 117.452 123.313 117.692H123.333" stroke="white" stroke-miterlimit="10"/>
<path d="M125.836 118.805C129.104 120.158 132.796 121.17 136.76 121.771C139.534 122.202 142.444 122.423 145.45 122.423C148.457 122.423 151.366 122.202 154.141 121.771C158.384 121.13 162.29 120.007 165.722 118.524C166.34 118.264 166.94 117.983 167.52 117.692C167.558 117.672 167.597 117.672 167.616 117.672L167.848 117.552C168.535 117.221 169.192 116.86 169.83 116.49C170.265 116.239 170.69 115.979 171.096 115.698C173.165 114.365 174.924 112.832 176.297 111.198C176.316 111.158 176.374 111.098 176.413 111.078C177.07 110.166 177.728 109.204 178.337 108.181C178.53 107.831 178.723 107.49 178.917 107.129" stroke="white" stroke-miterlimit="10"/>
<path d="M108.146 77.1832C110.766 64.4853 118.412 55.285 127.441 55.285C131.54 55.285 142.947 63.3728 145.431 63.3728C147.915 63.3728 159.351 55.285 163.44 55.285C172.488 55.285 180.135 64.4853 182.735 77.2033" stroke="white" stroke-miterlimit="10"/>
<path d="M141.516 82.6753C140.955 87.1452 135.812 89.1395 129.326 93.1383C124.241 96.2752 117.929 100.905 111.278 107.831C109.973 109.184 108.658 110.627 107.334 112.18C107.005 111.9 106.677 111.619 106.367 111.318C100.152 105.546 96.4105 98.3598 96.1592 90.5527V90.5326C96.2172 89.35 96.3718 88.1774 96.5652 87.0349C99.1076 84.6998 101.457 82.6453 103.593 80.8814C105.439 79.328 107.141 77.965 108.697 76.7723C120.133 68.003 124.464 67.8327 127.257 68.2636C134.904 69.4462 142.222 76.9126 141.526 82.6954L141.516 82.6753Z" stroke="white" stroke-miterlimit="10"/>
<path d="M194.722 90.5226V90.5427C194.471 98.3498 190.72 105.536 184.514 111.308C184.204 111.609 183.876 111.89 183.547 112.17C182.242 110.637 180.927 109.194 179.622 107.841C172.943 100.895 166.659 96.2652 161.555 93.1283C155.069 89.1195 149.926 87.1352 149.365 82.6653C148.669 76.8926 155.987 69.4262 163.633 68.2336C166.427 67.8126 170.758 67.973 182.194 76.7423C183.75 77.9249 185.451 79.2979 187.298 80.8513C189.434 82.6252 191.783 84.6798 194.326 87.0049V87.0249C194.519 88.1674 194.674 89.34 194.732 90.5026L194.722 90.5226Z" stroke="white" stroke-miterlimit="10"/>
<path d="M127.944 87.4859C132.177 87.4859 135.609 83.9276 135.609 79.5384C135.609 75.1491 132.177 71.5909 127.944 71.5909C123.71 71.5909 120.278 75.1491 120.278 79.5384C120.278 83.9276 123.71 87.4859 127.944 87.4859Z" stroke="white" stroke-miterlimit="10"/>
<path d="M162.928 87.4759C167.156 87.4759 170.584 83.9222 170.584 79.5384C170.584 75.1547 167.156 71.601 162.928 71.601C158.699 71.601 155.272 75.1547 155.272 79.5384C155.272 83.9222 158.699 87.4759 162.928 87.4759Z" stroke="white" stroke-miterlimit="10"/>
<path d="M129.887 76.4617C129.2 76.4617 128.562 76.5819 127.982 76.8024C128.156 77.1031 128.234 77.4238 128.234 77.7846C128.234 78.9171 127.364 79.8391 126.252 79.8391C125.807 79.8391 125.382 79.6787 125.053 79.3981C124.725 80.0596 124.541 80.7912 124.541 81.5529C124.541 84.349 126.929 86.624 129.887 86.624C130.776 86.624 131.617 86.4136 132.352 86.0528C133.879 85.2911 134.971 83.8579 135.184 82.1642C135.213 81.9638 135.223 81.7633 135.223 81.5529C135.223 78.7367 132.835 76.4617 129.887 76.4617ZM131.82 85.3111C130.892 85.3111 130.138 84.5294 130.138 83.5673C130.138 82.6052 130.892 81.8134 131.82 81.8134C132.748 81.8134 133.512 82.5952 133.512 83.5673C133.512 84.5394 132.758 85.3111 131.82 85.3111Z" fill="white" stroke="white" stroke-miterlimit="10"/>
<path d="M160.985 76.4617C160.299 76.4617 159.66 76.5819 159.08 76.8024C159.254 77.1031 159.332 77.4238 159.332 77.7846C159.332 78.9171 158.452 79.8391 157.369 79.8391C156.905 79.8391 156.48 79.6787 156.151 79.3781C155.813 80.0395 155.639 80.7711 155.639 81.5529C155.639 81.7232 155.649 81.8836 155.668 82.054V82.074C155.852 83.8179 156.992 85.3111 158.578 86.0728C159.303 86.4236 160.115 86.624 160.985 86.624C163.933 86.624 166.321 84.349 166.321 81.5529C166.321 78.7567 163.933 76.4617 160.985 76.4617ZM162.918 85.3111C161.99 85.3111 161.256 84.5294 161.256 83.5673C161.256 82.6052 161.99 81.8134 162.918 81.8134C163.846 81.8134 164.61 82.5952 164.61 83.5673C164.61 84.5394 163.856 85.3111 162.918 85.3111Z" fill="white" stroke="white" stroke-miterlimit="10"/>
<path d="M120.781 63.7605C123.055 62.6611 124.679 61.2818 124.408 60.6798C124.137 60.0779 122.074 60.4811 119.8 61.5805C117.526 62.68 115.902 64.0592 116.173 64.6612C116.443 65.2632 118.506 64.8599 120.781 63.7605Z" fill="white" stroke="white" stroke-miterlimit="10"/>
<path d="M174.705 64.6641C174.975 64.0621 173.351 62.6829 171.077 61.5834C168.803 60.484 166.74 60.0808 166.469 60.6827C166.198 61.2847 167.823 62.664 170.097 63.7634C172.371 64.8628 174.434 65.2661 174.705 64.6641Z" fill="white" stroke="white" stroke-miterlimit="10"/>
<path d="M145.441 97.9289C149.274 97.9289 152.381 96.1251 152.381 93.9C152.381 91.6749 149.274 89.8712 145.441 89.8712C141.607 89.8712 138.5 91.6749 138.5 93.9C138.5 96.1251 141.607 97.9289 145.441 97.9289Z" fill="white" stroke="white" stroke-miterlimit="10"/>
<path d="M145.644 97.7385C145.827 97.9489 148.08 100.444 152.391 100.755C156.635 101.066 159.1 98.9912 159.312 98.8008" stroke="white" stroke-miterlimit="10"/>
<path d="M145.721 97.7385C145.537 97.9489 143.285 100.444 138.973 100.755C134.73 101.066 132.265 98.9912 132.052 98.8008" stroke="white" stroke-miterlimit="10"/>
<path d="M113.076 126.592C114.203 126.592 115.116 124.039 115.116 120.889C115.116 117.74 114.203 115.187 113.076 115.187C111.95 115.187 111.036 117.74 111.036 120.889C111.036 124.039 111.95 126.592 113.076 126.592Z" stroke="white" stroke-miterlimit="10"/>
<path d="M117.184 127.815C118.29 127.815 119.185 125.033 119.185 121.601C119.185 118.169 118.29 115.387 117.184 115.387C116.079 115.387 115.183 118.169 115.183 121.601C115.183 125.033 116.079 127.815 117.184 127.815Z" stroke="white" stroke-miterlimit="10"/>
<path d="M120.568 127.815C121.678 127.815 122.579 125.033 122.579 121.601C122.579 118.169 121.678 115.387 120.568 115.387C119.457 115.387 118.557 118.169 118.557 121.601C118.557 125.033 119.457 127.815 120.568 127.815Z" stroke="white" stroke-miterlimit="10"/>
<path d="M124.406 127.815C125.415 127.815 126.233 125.315 126.233 122.232C126.233 119.149 125.415 116.65 124.406 116.65C123.397 116.65 122.579 119.149 122.579 122.232C122.579 125.315 123.397 127.815 124.406 127.815Z" stroke="white" stroke-miterlimit="10"/>
<path d="M178.337 126.862C179.463 126.862 180.376 124.309 180.376 121.16C180.376 118.011 179.463 115.457 178.337 115.457C177.21 115.457 176.297 118.011 176.297 121.16C176.297 124.309 177.21 126.862 178.337 126.862Z" stroke="white" stroke-miterlimit="10"/>
<path d="M174.228 128.085C175.333 128.085 176.229 125.303 176.229 121.872C176.229 118.44 175.333 115.658 174.228 115.658C173.123 115.658 172.227 118.44 172.227 121.872C172.227 125.303 173.123 128.085 174.228 128.085Z" stroke="white" stroke-miterlimit="10"/>
<path d="M170.845 128.085C171.955 128.085 172.856 125.303 172.856 121.872C172.856 118.44 171.955 115.658 170.845 115.658C169.734 115.658 168.834 118.44 168.834 121.872C168.834 125.303 169.734 128.085 170.845 128.085Z" stroke="white" stroke-miterlimit="10"/>
<path d="M166.998 128.085C168.007 128.085 168.825 125.586 168.825 122.503C168.825 119.42 168.007 116.921 166.998 116.921C165.989 116.921 165.171 119.42 165.171 122.503C165.171 125.586 165.989 128.085 166.998 128.085Z" stroke="white" stroke-miterlimit="10"/>
</svg>